<svg width="244" height="244" viewBox="0 0 244 244" fill="none" xmlns="http://www.w3.org/2000/svg">
<circle cx="122.5" cy="117" r="99.5" fill="url(#paint0_linear_1467_1002)"/>
<path d="M210.342 148.795C205.646 162.418 197.897 174.787 187.687 184.956C177.477 195.125 165.077 202.824 151.435 207.465V165.5V154.997C151.435 153.682 151.146 152.382 150.59 151.19L147 143.5L158.819 147.877C159.931 148.289 161.107 148.5 162.292 148.5H176.5L210.342 148.795Z" fill="url(#paint1_linear_1467_1002)"/>
<path d="M33.0002 87.1702C37.696 73.5468 45.4451 61.1777 55.655 51.0089C65.8649 40.8401 78.265 33.1408 91.9072 28.5L91.9072 70.465V78.8799C91.9072 79.9514 92.0985 81.0142 92.4722 82.0184L96 91.5L84.4481 87.9144C83.4882 87.6165 82.4888 87.465 81.4837 87.465H66.8418L33.0002 87.1702Z" fill="url(#paint2_linear_1467_1002)"/>
<path d="M91.6702 206.5C78.0468 201.879 65.6777 194.253 55.5089 184.205C45.3401 174.157 37.6409 161.953 33 148.528H74.965H80.7288C81.8984 148.528 83.0568 148.3 84.1391 147.857L96 143L92.8394 150.901C92.2847 152.288 91.9937 153.767 91.9816 155.26L91.965 157.294V173.195L91.6702 206.5Z" fill="url(#paint3_linear_1467_1002)"/>
<path d="M153.295 28.4999C166.918 33.1957 179.287 40.9449 189.456 51.1547C199.625 61.3646 207.324 73.7648 211.965 87.407H170H162.268C161.427 87.407 160.59 87.5249 159.782 87.7572L148.5 91L152.191 82.3866C152.725 81.1418 153 79.8017 153 78.4474V62.3416L153.295 28.4999Z" fill="url(#paint4_linear_1467_1002)"/>
<g filter="url(#filter0_dii_1467_1002)">
<path d="M15 150C8.92486 150 4 145.075 4 139L4 98C4 91.9249 8.92487 87 15 87H81.5475C82.6841 87 83.8137 87.1761 84.8963 87.5222L117.535 97.954C119.666 98.6351 121.954 98.6503 124.094 97.9974L158.572 87.4787C159.613 87.1613 160.694 87 161.782 87L229 87C235.075 87 240 91.9249 240 98V139C240 145.075 235.075 150 229 150H163.71C162.336 150 160.975 149.743 159.696 149.241L124.996 135.641C122.312 134.589 119.322 134.633 116.67 135.764L85.3289 149.119C83.9655 149.7 82.4986 150 81.0165 150H15Z" fill="#363635"/>
</g>
<g filter="url(#filter1_i_1467_1002)">
<path d="M43.1441 128.712C36.8406 124.782 33.6889 122.818 32.7404 120.242C32.0878 118.472 32.0878 116.528 32.7404 114.758C33.6889 112.182 36.8406 110.218 43.1441 106.288C50.2369 101.866 53.7841 99.6553 56.7119 100.044C58.713 100.308 60.5449 101.305 61.8534 102.842C63.7504 105.075 56.7119 109.717 56.7119 118C56.7119 126.283 63.7504 129.925 61.8534 132.158C60.5449 133.695 58.713 134.692 56.7119 134.956C53.7841 135.345 50.2369 133.135 43.1441 128.712Z" fill="#2C2C29"/>
</g>
<g filter="url(#filter2_i_1467_1002)">
<path d="M202.856 106.288C209.159 110.218 212.311 112.182 213.26 114.758C213.912 116.528 213.912 118.472 213.26 120.242C212.311 122.818 209.159 124.782 202.856 128.712C195.763 133.134 192.216 135.345 189.288 134.956C187.287 134.692 185.455 133.695 184.147 132.158C182.25 129.925 189.288 125.283 189.288 117C189.288 108.717 182.25 105.075 184.147 102.842C185.455 101.305 187.287 100.308 189.288 100.044C192.216 99.6552 195.763 101.865 202.856 106.288Z" fill="#2C2C29"/>
</g>
<g filter="url(#filter3_dii_1467_1002)">
<path d="M153.5 225C153.5 231.075 148.575 236 142.5 236H101.5C95.4249 236 90.5 231.075 90.5 225V158.453C90.5 157.316 90.6761 156.186 91.0222 155.104L101.454 122.465C102.135 120.334 102.15 118.046 101.497 115.906L90.9787 81.4278C90.6613 80.3874 90.5 79.3057 90.5 78.2179V11C90.5 4.92487 95.4249 0 101.5 0H142.5C148.575 0 153.5 4.92487 153.5 11V76.29C153.5 77.6636 153.243 79.0251 152.741 80.304L139.141 115.004C138.089 117.688 138.133 120.678 139.264 123.33L152.619 154.671C153.2 156.035 153.5 157.501 153.5 158.983V225Z" fill="#363635"/>
</g>
<g filter="url(#filter4_i_1467_1002)">
<path d="M110.788 38.6438C114.718 32.3403 116.682 29.1885 119.258 28.24C121.028 27.5875 122.972 27.5875 124.742 28.24C127.318 29.1885 129.282 32.3403 133.212 38.6438C137.634 45.7365 139.845 49.2838 139.456 52.2115C139.192 54.2126 138.195 56.0445 136.658 57.353C134.425 59.25 129.783 52.2115 121.5 52.2115C113.217 52.2115 109.575 59.25 107.342 57.353C105.805 56.0445 104.808 54.2126 104.544 52.2115C104.155 49.2838 106.365 45.7365 110.788 38.6438Z" fill="#2C2C29"/>
</g>
<g filter="url(#filter5_i_1467_1002)">
<path d="M133.212 195.356C129.282 201.66 127.318 204.811 124.742 205.76C122.972 206.413 121.028 206.413 119.258 205.76C116.682 204.811 114.718 201.66 110.788 195.356C106.366 188.263 104.155 184.716 104.544 181.788C104.808 179.787 105.805 177.955 107.342 176.647C109.575 174.75 114.217 181.788 122.5 181.788C130.783 181.788 134.425 174.75 136.658 176.647C138.195 177.955 139.192 179.787 139.456 181.788C139.845 184.716 137.635 188.263 133.212 195.356Z" fill="#2C2C29"/>
</g>
<defs>
<filter id="filter0_dii_1467_1002" x="0" y="83" width="244" height="75" filterUnits="userSpaceOnUse" color-interpolation-filters="sRGB">
<feFlood flood-opacity="0" result="BackgroundImageFix"/>
<feColorMatrix in="SourceAlpha" type="matrix" values="0 0 0 0 0 0 0 0 0 0 0 0 0 0 0 0 0 0 127 0" result="hardAlpha"/>
<feOffset dy="4"/>
<feGaussianBlur stdDeviation="2"/>
<feComposite in2="hardAlpha" operator="out"/>
<feColorMatrix type="matrix" values="0 0 0 0 0 0 0 0 0 0 0 0 0 0 0 0 0 0 0.25 0"/>
<feBlend mode="normal" in2="BackgroundImageFix" result="effect1_dropShadow_1467_1002"/>
<feBlend mode="normal" in="SourceGraphic" in2="effect1_dropShadow_1467_1002" result="shape"/>
<feColorMatrix in="SourceAlpha" type="matrix" values="0 0 0 0 0 0 0 0 0 0 0 0 0 0 0 0 0 0 127 0" result="hardAlpha"/>
<feOffset dx="6" dy="-8"/>
<feGaussianBlur stdDeviation="2"/>
<feComposite in2="hardAlpha" operator="arithmetic" k2="-1" k3="1"/>
<feColorMatrix type="matrix" values="0 0 0 0 0 0 0 0 0 0 0 0 0 0 0 0 0 0 0.25 0"/>
<feBlend mode="normal" in2="shape" result="effect2_innerShadow_1467_1002"/>
<feColorMatrix in="SourceAlpha" type="matrix" values="0 0 0 0 0 0 0 0 0 0 0 0 0 0 0 0 0 0 127 0" result="hardAlpha"/>
<feOffset dx="-5" dy="4"/>
<feGaussianBlur stdDeviation="2"/>
<feComposite in2="hardAlpha" operator="arithmetic" k2="-1" k3="1"/>
<feColorMatrix type="matrix" values="0 0 0 0 0.475 0 0 0 0 0.471437 0 0 0 0 0.471437 0 0 0 0.25 0"/>
<feBlend mode="normal" in2="effect2_innerShadow_1467_1002" result="effect3_innerShadow_1467_1002"/>
</filter>
<filter id="filter1_i_1467_1002" x="32.251" y="100" width="33.9268" height="36" filterUnits="userSpaceOnUse" color-interpolation-filters="sRGB">
<feFlood flood-opacity="0" result="BackgroundImageFix"/>
<feBlend mode="normal" in="SourceGraphic" in2="BackgroundImageFix" result="shape"/>
<feColorMatrix in="SourceAlpha" type="matrix" values="0 0 0 0 0 0 0 0 0 0 0 0 0 0 0 0 0 0 127 0" result="hardAlpha"/>
<feOffset dx="10" dy="1"/>
<feGaussianBlur stdDeviation="2"/>
<feComposite in2="hardAlpha" operator="arithmetic" k2="-1" k3="1"/>
<feColorMatrix type="matrix" values="0 0 0 0 0 0 0 0 0 0 0 0 0 0 0 0 0 0 0.36 0"/>
<feBlend mode="normal" in2="shape" result="effect1_innerShadow_1467_1002"/>
</filter>
<filter id="filter2_i_1467_1002" x="183.822" y="100" width="33.9268" height="36" filterUnits="userSpaceOnUse" color-interpolation-filters="sRGB">
<feFlood flood-opacity="0" result="BackgroundImageFix"/>
<feBlend mode="normal" in="SourceGraphic" in2="BackgroundImageFix" result="shape"/>
<feColorMatrix in="SourceAlpha" type="matrix" values="0 0 0 0 0 0 0 0 0 0 0 0 0 0 0 0 0 0 127 0" result="hardAlpha"/>
<feOffset dx="6" dy="1"/>
<feGaussianBlur stdDeviation="2"/>
<feComposite in2="hardAlpha" operator="arithmetic" k2="-1" k3="1"/>
<feColorMatrix type="matrix" values="0 0 0 0 0 0 0 0 0 0 0 0 0 0 0 0 0 0 0.36 0"/>
<feBlend mode="normal" in2="shape" result="effect1_innerShadow_1467_1002"/>
</filter>
<filter id="filter3_dii_1467_1002" x="86.5" y="-4" width="71" height="248" filterUnits="userSpaceOnUse" color-interpolation-filters="sRGB">
<feFlood flood-opacity="0" result="BackgroundImageFix"/>
<feColorMatrix in="SourceAlpha" type="matrix" values="0 0 0 0 0 0 0 0 0 0 0 0 0 0 0 0 0 0 127 0" result="hardAlpha"/>
<feOffset dy="4"/>
<feGaussianBlur stdDeviation="2"/>
<feComposite in2="hardAlpha" operator="out"/>
<feColorMatrix type="matrix" values="0 0 0 0 0 0 0 0 0 0 0 0 0 0 0 0 0 0 0.25 0"/>
<feBlend mode="normal" in2="BackgroundImageFix" result="effect1_dropShadow_1467_1002"/>
<feBlend mode="normal" in="SourceGraphic" in2="effect1_dropShadow_1467_1002" result="shape"/>
<feColorMatrix in="SourceAlpha" type="matrix" values="0 0 0 0 0 0 0 0 0 0 0 0 0 0 0 0 0 0 127 0" result="hardAlpha"/>
<feOffset dx="6" dy="-8"/>
<feGaussianBlur stdDeviation="2"/>
<feComposite in2="hardAlpha" operator="arithmetic" k2="-1" k3="1"/>
<feColorMatrix type="matrix" values="0 0 0 0 0 0 0 0 0 0 0 0 0 0 0 0 0 0 0.25 0"/>
<feBlend mode="normal" in2="shape" result="effect2_innerShadow_1467_1002"/>
<feColorMatrix in="SourceAlpha" type="matrix" values="0 0 0 0 0 0 0 0 0 0 0 0 0 0 0 0 0 0 127 0" result="hardAlpha"/>
<feOffset dx="-5" dy="4"/>
<feGaussianBlur stdDeviation="2"/>
<feComposite in2="hardAlpha" operator="arithmetic" k2="-1" k3="1"/>
<feColorMatrix type="matrix" values="0 0 0 0 0.475 0 0 0 0 0.471437 0 0 0 0 0.471437 0 0 0 0.25 0"/>
<feBlend mode="normal" in2="effect2_innerShadow_1467_1002" result="effect3_innerShadow_1467_1002"/>
</filter>
<filter id="filter4_i_1467_1002" x="104.5" y="27.7506" width="39" height="31.927" filterUnits="userSpaceOnUse" color-interpolation-filters="sRGB">
<feFlood flood-opacity="0" result="BackgroundImageFix"/>
<feBlend mode="normal" in="SourceGraphic" in2="BackgroundImageFix" result="shape"/>
<feColorMatrix in="SourceAlpha" type="matrix" values="0 0 0 0 0 0 0 0 0 0 0 0 0 0 0 0 0 0 127 0" result="hardAlpha"/>
<feOffset dx="7" dy="2"/>
<feGaussianBlur stdDeviation="2"/>
<feComposite in2="hardAlpha" operator="arithmetic" k2="-1" k3="1"/>
<feColorMatrix type="matrix" values="0 0 0 0 0 0 0 0 0 0 0 0 0 0 0 0 0 0 0.36 0"/>
<feBlend mode="normal" in2="shape" result="effect1_innerShadow_1467_1002"/>
</filter>
<filter id="filter5_i_1467_1002" x="104.5" y="172.322" width="39" height="33.927" filterUnits="userSpaceOnUse" color-interpolation-filters="sRGB">
<feFlood flood-opacity="0" result="BackgroundImageFix"/>
<feBlend mode="normal" in="SourceGraphic" in2="BackgroundImageFix" result="shape"/>
<feColorMatrix in="SourceAlpha" type="matrix" values="0 0 0 0 0 0 0 0 0 0 0 0 0 0 0 0 0 0 127 0" result="hardAlpha"/>
<feOffset dx="4" dy="-6"/>
<feGaussianBlur stdDeviation="2"/>
<feComposite in2="hardAlpha" operator="arithmetic" k2="-1" k3="1"/>
<feColorMatrix type="matrix" values="0 0 0 0 0 0 0 0 0 0 0 0 0 0 0 0 0 0 0.36 0"/>
<feBlend mode="normal" in2="shape" result="effect1_innerShadow_1467_1002"/>
</filter>
<linearGradient id="paint0_linear_1467_1002" x1="120" y1="215.5" x2="123" y2="17.5" gradientUnits="userSpaceOnUse">
<stop stop-color="#777773"/>
<stop offset="1" stop-color="#2C2C29"/>
</linearGradient>
<linearGradient id="paint1_linear_1467_1002" x1="123" y1="207.5" x2="120" y2="26" gradientUnits="userSpaceOnUse">
<stop stop-color="#1E1E1C"/>
<stop offset="0.631" stop-color="#2B2B28"/>
<stop offset="1" stop-color="#2C2C29"/>
</linearGradient>
<linearGradient id="paint2_linear_1467_1002" x1="119.87" y1="28.4655" x2="122.796" y2="207.228" gradientUnits="userSpaceOnUse">
<stop stop-color="#1E1E1C"/>
<stop offset="0.631" stop-color="#2B2B28"/>
<stop offset="1" stop-color="#2C2C29"/>
</linearGradient>
<linearGradient id="paint3_linear_1467_1002" x1="32.9655" y1="118.94" x2="211.729" y2="116.037" gradientUnits="userSpaceOnUse">
<stop stop-color="#1E1E1C"/>
<stop offset="0.631" stop-color="#2B2B28"/>
<stop offset="1" stop-color="#2C2C29"/>
</linearGradient>
<linearGradient id="paint4_linear_1467_1002" x1="212" y1="114.681" x2="31.919" y2="117.674" gradientUnits="userSpaceOnUse">
<stop stop-color="#1E1E1C"/>
<stop offset="0.631" stop-color="#2B2B28"/>
<stop offset="1" stop-color="#2C2C29"/>
</linearGradient>
</defs>
</svg>
