<svg width="198" height="25" viewBox="0 0 198 25" fill="none" xmlns="http://www.w3.org/2000/svg">
<path d="M22.7999 0.294117V2.35294H24.8587V4.41176H22.7999V6.47059H12.5058V16.7647H22.7999V18.8235H24.8587V22.9412H22.7999V25H4.27048V22.9412H2.21166V20.8824H0.152832V4.41176H2.21166V6.47059H4.27048V4.41176H6.3293V2.35294H4.27048V0.294117H22.7999ZM51.6134 2.35294V4.41176H53.6722V20.8824H51.6134V22.9412H49.5545V25H33.084V22.9412H31.0251V20.8824H28.9663V4.41176H31.0251V6.47059H33.084V4.41176H35.1428V2.35294H33.084V0.294117H49.5545V2.35294H51.6134ZM47.4957 16.7647V6.47059H41.3193V16.7647H47.4957ZM80.4268 0.294117V2.35294H82.4857V22.9412H80.4268V25H76.3092V22.9412H74.2504V14.7059H72.1916V12.6471H70.1327V22.9412H68.0739V25H59.8386V22.9412H57.7798V2.35294H59.8386V6.47059H61.8974V4.41176H63.9563V2.35294H59.8386V0.294117H68.0739V2.35294H70.1327V6.47059H72.1916V8.52941H74.2504V2.35294H76.3092V0.294117H80.4268ZM109.24 0.294117V2.35294H111.299V6.47059H109.24V8.52941H105.123V22.9412H103.064V25H94.8286V22.9412H92.7697V8.52941H88.6521V6.47059H90.7109V4.41176H92.7697V2.35294H88.6521V0.294117H109.24ZM88.6521 2.35294V6.47059H86.5933V2.35294H88.6521ZM138.054 2.35294V4.41176H140.113V22.9412H138.054V25H135.995V22.9412H133.936V14.7059H127.76V22.9412H125.701V25H117.466V22.9412H115.407V4.41176H117.466V6.47059H119.524V4.41176H121.583V2.35294H119.524V0.294117H135.995V2.35294H138.054ZM133.936 8.52941V6.47059H127.76V8.52941H133.936ZM166.867 0.294117V2.35294H168.926V4.41176H166.867V6.47059H156.573V16.7647H166.867V18.8235H168.926V22.9412H166.867V25H148.338V22.9412H146.279V20.8824H144.22V4.41176H146.279V6.47059H148.338V4.41176H150.397V2.35294H148.338V0.294117H166.867ZM195.681 0.294117V2.35294H197.74V6.47059H195.681V8.52941H191.563V22.9412H189.504V25H181.269V22.9412H179.21V8.52941H175.093V6.47059H177.151V4.41176H179.21V2.35294H175.093V0.294117H195.681ZM175.093 2.35294V6.47059H173.034V2.35294H175.093Z" fill="white"/>
</svg>
