<?xml version="1.0" encoding="utf-8"?>
<svg viewBox="33.8822 85.0794 398.4683 391.4796" width="398.468px" height="391.48px" preserveAspectRatio="none" xmlns="http://www.w3.org/2000/svg"><defs><filter id="filter0_ii_3051_3850" x="74.291" y="74.25" width="404.468" height="398.48" filterUnits="userSpaceOnUse" color-interpolation-filters="sRGB"><feFlood flood-opacity="0" result="BackgroundImageFix"/><feBlend mode="normal" in="SourceGraphic" in2="BackgroundImageFix" result="shape"/><feColorMatrix in="SourceAlpha" type="matrix" values="0 0 0 0 0 0 0 0 0 0 0 0 0 0 0 0 0 0 127 0" result="hardAlpha"/><feOffset dx="2" dy="-3"/><feGaussianBlur stdDeviation="2"/><feComposite in2="hardAlpha" operator="arithmetic" k2="-1" k3="1"/><feColorMatrix type="matrix" values="0 0 0 0 0 0 0 0 0 0 0 0 0 0 0 0 0 0 0.37 0"/><feBlend mode="normal" in2="shape" result="effect1_innerShadow_3051_3850"/><feColorMatrix in="SourceAlpha" type="matrix" values="0 0 0 0 0 0 0 0 0 0 0 0 0 0 0 0 0 0 127 0" result="hardAlpha"/><feOffset dx="-4" dy="4"/><feGaussianBlur stdDeviation="2"/><feComposite in2="hardAlpha" operator="arithmetic" k2="-1" k3="1"/><feColorMatrix type="matrix" values="0 0 0 0 0.448333 0 0 0 0 0.437498 0 0 0 0 0.437498 0 0 0 0.21 0"/><feBlend mode="normal" in2="effect1_innerShadow_3051_3850" result="effect2_innerShadow_3051_3850"/></filter></defs><g filter="url(#filter0_ii_3051_3850)" transform="matrix(1, 0, 0, 1, -44.40870985408992, 7.828441986420216)" id="object-0"><path d="M192.68 123.297C231.79 63.6875 318.427 61.5677 360.406 119.193L377.126 142.145C383.245 150.545 390.612 157.96 398.971 164.134L435.357 191.008C490.767 231.932 490.517 314.879 434.861 355.468L399.475 381.274C390.785 387.611 383.152 395.283 376.86 404.005L360.692 426.412C318.75 484.543 231.508 482.416 192.448 422.31L183.152 408.005C175.789 396.675 166.248 386.92 155.083 379.308L122.833 357.321C63.6557 316.975 63.3983 229.802 122.336 189.108L155.601 166.14C166.43 158.663 175.709 149.161 182.928 138.159L192.68 123.297Z" fill="#424446"/></g></svg>