<svg width="201" height="44" viewBox="0 0 201 44" fill="none" xmlns="http://www.w3.org/2000/svg">
<path d="M40.1889 0.235293V3.88235H43.836V7.52941H40.1889V11.1765H21.9536V29.4118H32.8948V25.7647H29.2478V22.1176H25.6007V18.4706H29.2478V14.8235H40.1889V18.4706H43.836V36.7059H40.1889V40.3529H36.5419V44H7.36541V40.3529H3.71835V36.7059H0.0712891V7.52941H3.71835V11.1765H7.36541V7.52941H11.0125V3.88235H7.36541V0.235293H40.1889ZM91.23 3.88235V7.52941H94.877V40.3529H91.23V44H87.5829V40.3529H83.9358V25.7647H72.9947V40.3529H69.3476V44H54.7594V40.3529H51.1123V7.52941H54.7594V11.1765H58.4064V7.52941H62.0535V3.88235H58.4064V0.235293H87.5829V3.88235H91.23ZM83.9358 14.8235V11.1765H72.9947V14.8235H83.9358ZM145.918 0.235293V3.88235H149.565V40.3529H145.918V44H138.624V40.3529H134.977V25.7647H131.33V29.4118H127.683V25.7647H124.036V40.3529H120.389V44H105.8V40.3529H102.153V3.88235H105.8V11.1765H109.447V7.52941H113.094V3.88235H105.8V0.235293H120.389V3.88235H124.036V11.1765H127.683V14.8235H131.33V11.1765H134.977V3.88235H138.624V0.235293H145.918ZM197.005 0.235293V3.88235H200.652V7.52941H197.005V11.1765H178.77V14.8235H197.005V18.4706H200.652V22.1176H197.005V25.7647H178.77V29.4118H197.005V33.0588H200.652V40.3529H197.005V44H160.535V40.3529H156.888V3.88235H160.535V11.1765H164.182V7.52941H167.829V3.88235H160.535V0.235293H197.005Z" fill="url(#paint0_linear_3322_8604)"/>
<defs>
<linearGradient id="paint0_linear_3322_8604" x1="104" y1="-8.02626" x2="104" y2="59.0952" gradientUnits="userSpaceOnUse">
<stop offset="0.204" stop-color="white"/>
<stop offset="0.514" stop-color="#EF9900"/>
<stop offset="0.919" stop-color="#F3AF38"/>
</linearGradient>
</defs>
</svg>
