<svg width="201" height="25" viewBox="0 0 201 25" fill="none" xmlns="http://www.w3.org/2000/svg">
<path d="M25.3162 0.294117V2.35294H27.3751V22.9412H25.3162V25H21.1986V22.9412H19.1398V14.7059H17.0809V16.7647H15.0221V14.7059H12.9633V22.9412H10.9045V25H2.66918V22.9412H0.610352V2.35294H2.66918V6.47059H4.728V4.41176H6.78682V2.35294H2.66918V0.294117H10.9045V2.35294H12.9633V6.47059H15.0221V8.52941H17.0809V6.47059H19.1398V2.35294H21.1986V0.294117H25.3162ZM54.1558 0.294117V2.35294H56.2147V4.41176H54.1558V6.47059H43.8617V8.52941H54.1558V10.5882H56.2147V12.6471H54.1558V14.7059H43.8617V16.7647H54.1558V18.8235H56.2147V22.9412H54.1558V25H33.5676V22.9412H31.5088V2.35294H33.5676V6.47059H35.6264V4.41176H37.6853V2.35294H33.5676V0.294117H54.1558ZM82.9693 0.294117V2.35294H85.0281V4.41176H82.9693V6.47059H72.6752V8.52941H82.9693V10.5882H85.0281V20.8824H82.9693V22.9412H80.9105V25H62.3811V22.9412H60.3223V16.7647H62.3811V14.7059H76.7929V12.6471H62.3811V10.5882H60.3223V4.41176H62.3811V6.47059H64.4399V4.41176H66.4987V2.35294H64.4399V0.294117H82.9693ZM111.783 0.294117V2.35294H113.842V4.41176H111.783V6.47059H101.489V8.52941H111.783V10.5882H113.842V20.8824H111.783V22.9412H109.724V25H91.1946V22.9412H89.1357V16.7647H91.1946V14.7059H105.606V12.6471H91.1946V10.5882H89.1357V4.41176H91.1946V6.47059H93.2534V4.41176H95.3122V2.35294H93.2534V0.294117H111.783ZM140.596 2.35294V4.41176H142.655V22.9412H140.596V25H138.537V22.9412H136.479V14.7059H130.302V22.9412H128.243V25H120.008V22.9412H117.949V4.41176H120.008V6.47059H122.067V4.41176H124.126V2.35294H122.067V0.294117H138.537V2.35294H140.596ZM136.479 8.52941V6.47059H130.302V8.52941H136.479ZM169.41 0.294117V2.35294H171.469V4.41176H169.41V6.47059H159.116V16.7647H165.292V14.7059H163.233V12.6471H161.174V10.5882H163.233V8.52941H169.41V10.5882H171.469V20.8824H169.41V22.9412H167.351V25H150.88V22.9412H148.822V20.8824H146.763V4.41176H148.822V6.47059H150.88V4.41176H152.939V2.35294H150.88V0.294117H169.41ZM198.223 0.294117V2.35294H200.282V4.41176H198.223V6.47059H187.929V8.52941H198.223V10.5882H200.282V12.6471H198.223V14.7059H187.929V16.7647H198.223V18.8235H200.282V22.9412H198.223V25H177.635V22.9412H175.576V2.35294H177.635V6.47059H179.694V4.41176H181.753V2.35294H177.635V0.294117H198.223Z" fill="white"/>
</svg>
