<svg width="198" height="44" viewBox="0 0 198 44" fill="none" xmlns="http://www.w3.org/2000/svg">
<path d="M41.0356 3.88235V7.52941H44.6827V36.7059H41.0356V40.3529H37.3886V44H8.21209V40.3529H4.56503V36.7059H0.917969V7.52941H4.56503V11.1765H8.21209V7.52941H11.8591V3.88235H8.21209V0.235293H37.3886V3.88235H41.0356ZM33.7415 29.4118V11.1765H22.8003V29.4118H33.7415ZM92.0766 0.235293V3.88235H95.7237V25.7647H92.0766V29.4118H88.4296V33.0588H84.7825V36.7059H81.1355V40.3529H77.4884V44H59.2531V40.3529H55.606V36.7059H51.959V3.88235H55.606V11.1765H59.2531V7.52941H62.9002V3.88235H55.606V0.235293H70.1943V3.88235H73.8413V25.7647H77.4884V22.1176H81.1355V3.88235H84.7825V0.235293H92.0766ZM143.118 0.235293V3.88235H146.765V7.52941H143.118V11.1765H124.882V14.8235H143.118V18.4706H146.765V22.1176H143.118V25.7647H124.882V29.4118H143.118V33.0588H146.765V40.3529H143.118V44H106.647V40.3529H103V3.88235H106.647V11.1765H110.294V7.52941H113.941V3.88235H106.647V0.235293H143.118ZM194.159 3.88235V7.52941H197.806V18.4706H194.159V22.1176H190.512V25.7647H194.159V29.4118H197.806V40.3529H194.159V44H190.512V40.3529H186.865V36.7059H183.217V33.0588H179.57V29.4118H175.923V40.3529H172.276V44H157.688V40.3529H154.041V3.88235H157.688V11.1765H161.335V7.52941H164.982V3.88235H157.688V0.235293H190.512V3.88235H194.159ZM175.923 14.8235H186.865V11.1765H175.923V14.8235Z" fill="url(#paint0_linear_3322_8605)"/>
<defs>
<linearGradient id="paint0_linear_3322_8605" x1="103" y1="-8.02626" x2="103" y2="59.0952" gradientUnits="userSpaceOnUse">
<stop offset="0.204" stop-color="white"/>
<stop offset="0.514" stop-color="#EF9900"/>
<stop offset="0.919" stop-color="#F3AF38"/>
</linearGradient>
</defs>
</svg>
