<svg width="141" height="51" viewBox="0 0 141 51" fill="none" xmlns="http://www.w3.org/2000/svg">
<mask id="path-1-inside-1_3322_8648" fill="white">
<path d="M12 6H132V51H12V6Z"/>
</mask>
<path d="M12 6H132V51H12V6Z" fill="#3967BF"/>
<path d="M12 9H132V3H12V9ZM132 48H12V54H132V48Z" fill="#3967BF" mask="url(#path-1-inside-1_3322_8648)"/>
<rect x="132.5" y="9.5" width="2" height="5" fill="black" stroke="#3967BF"/>
<rect x="135.5" y="15.5" width="2" height="5" fill="black" stroke="#3967BF"/>
<rect x="132.5" y="42.5" width="2" height="5" fill="#3967BF" stroke="#3967BF"/>
<rect x="135.5" y="36.5" width="2" height="5" fill="#3967BF" stroke="#3967BF"/>
<rect x="138.5" y="21.5" width="2" height="14" fill="#3967BF" stroke="#3967BF"/>
<rect x="11.5" y="47.5" width="2" height="5" transform="rotate(180 11.5 47.5)" fill="#3967BF" stroke="#3967BF"/>
<rect x="8.5" y="41.5" width="2" height="5" transform="rotate(180 8.5 41.5)" fill="black" stroke="#3967BF"/>
<rect x="11.5" y="14.5" width="2" height="5" transform="rotate(180 11.5 14.5)" fill="#030303" stroke="#3967BF"/>
<rect x="8.5" y="20.5" width="2" height="5" transform="rotate(180 8.5 20.5)" fill="black" stroke="#3967BF"/>
<rect x="5.5" y="35.5" width="2" height="14" transform="rotate(180 5.5 35.5)" fill="black" stroke="#3967BF"/>
<path d="M132.5 15.5H134.5V41.5H132.5V15.5Z" fill="#3967BF" stroke="#3967BF"/>
<rect x="135.5" y="21.5" width="2" height="14" fill="#3967BF" stroke="#3967BF"/>
<rect x="9.5" y="15.5" width="2" height="27" fill="#D9D9D9" stroke="#3967BF"/>
<rect x="6.5" y="21.5" width="2" height="14" fill="#D9D9D9" stroke="#3967BF"/>
<mask id="path-17-inside-2_3322_8648" fill="white">
<path d="M9 0H129V45H9V0Z"/>
</mask>
<path d="M9 0H129V45H9V0Z" fill="black"/>
<path d="M9 3H129V-3H9V3ZM129 42H9V48H129V42Z" fill="#3967BF" mask="url(#path-17-inside-2_3322_8648)"/>
<rect x="129.5" y="3.5" width="2" height="5" fill="#3967BF" stroke="#3967BF"/>
<rect x="132.5" y="9.5" width="2" height="5" fill="#3967BF" stroke="#3967BF"/>
<rect x="129.5" y="36.5" width="2" height="5" fill="#3967BF" stroke="#3967BF"/>
<rect x="132.5" y="30.5" width="2" height="5" fill="#3967BF" stroke="#3967BF"/>
<rect x="135.5" y="15.5" width="2" height="14" fill="#3967BF" stroke="#3967BF"/>
<rect x="8.5" y="41.5" width="2" height="5" transform="rotate(180 8.5 41.5)" fill="#3967BF" stroke="#3967BF"/>
<rect x="5.5" y="35.5" width="2" height="5" transform="rotate(180 5.5 35.5)" fill="#3967BF" stroke="#3967BF"/>
<rect x="8.5" y="8.5" width="2" height="5" transform="rotate(180 8.5 8.5)" fill="#3967BF" stroke="#3967BF"/>
<rect x="5.5" y="14.5" width="2" height="5" transform="rotate(180 5.5 14.5)" fill="#3967BF" stroke="#3967BF"/>
<rect x="2.5" y="29.5" width="2" height="14" transform="rotate(180 2.5 29.5)" fill="#3967BF" stroke="#3967BF"/>
<rect x="129" y="9" width="3" height="27" fill="black"/>
<rect x="132" y="15" width="3" height="15" fill="black"/>
<rect x="6" y="9" width="3" height="28" fill="black"/>
<rect x="3" y="15" width="3" height="15" fill="black"/>
</svg>
